<svg xmlns="http://www.w3.org/2000/svg" width="1053.608" height="221.959" viewBox="0 0 1053.608 221.959"><path d="M0 0c6.26 0 9.837 2.938 9.837 8.432 0 5.237-3.577 8.431-9.837 8.431h-22.611V0Zm-22.611 50.077V35.514h21.589c5.493 0 8.304 2.427 8.304 7.281 0 4.855-2.811 7.282-8.304 7.282zM33.47 5.365c0-15.712-13.158-25.293-34.62-25.293h-45.094v89.423H-1.15c19.546 0 31.937-9.198 31.937-23.889 0-8.687-3.704-14.947-11.242-18.651 8.687-3.961 13.925-11.881 13.925-21.59" style="fill:#000;fill-opacity:1;fill-rule:nonzero;stroke:none" transform="matrix(1.33333 0 0 -1.33333 352.895 123.754)"/><path d="M0 0q5.557 0 9.198 3.833c2.299 2.427 3.449 5.748 3.449 9.836q0 6.132-3.449 9.964C6.771 26.06 3.705 27.338 0 27.338s-6.771-1.278-9.07-3.705c-2.427-2.555-3.577-5.876-3.577-9.964s1.15-7.409 3.577-9.836C-6.771 1.277-3.705 0 0 0m15.457 45.222h20.184v-63.107H15.457l-1.277 7.41c-5.365-5.749-12.136-8.687-20.184-8.687-8.687 0-15.841 3.066-21.334 9.198-5.493 6.131-8.303 14.052-8.303 23.633s2.81 17.501 8.303 23.633S-14.691 46.5-6.004 46.5c8.048 0 14.819-2.811 20.184-8.559z" style="fill:#000;fill-opacity:1;fill-rule:nonzero;stroke:none" transform="matrix(1.33333 0 0 -1.33333 455.94 126.48)"/><path d="m0 0-9.453-16.352c-3.194 2.044-6.26 3.066-9.454 3.066-7.537 0-12.136-4.599-12.136-13.924v-30.66h-23.25V5.237h20.44l1.533-7.536c3.705 6.004 9.07 8.942 16.096 8.942C-9.709 6.643-4.343 4.471 0 0" style="fill:#000;fill-opacity:1;fill-rule:nonzero;stroke:none" transform="matrix(1.33333 0 0 -1.33333 594.245 73.166)"/><path d="M0 0h22.994c-.127 6.26-4.343 10.092-11.114 10.092C4.854 10.092.128 6.26 0 0m38.452 16.735q9.198-11.115 5.749-28.36H-.128c1.405-5.11 6.643-8.559 14.436-8.559 6.132 0 11.625 1.661 16.351 4.854l11.37-12.774C34.108-34.875 24.4-38.196 13.03-38.196q-17.054 0-26.827 8.814c-6.515 5.749-9.836 13.797-9.836 23.889 0 9.836 3.193 17.884 9.581 24.016 6.387 6.132 14.818 9.198 25.166 9.198 12.008 0 21.078-3.705 27.338-10.986" style="fill:#000;fill-opacity:1;fill-rule:nonzero;stroke:none" transform="matrix(1.33333 0 0 -1.33333 627.117 101.27)"/><path d="m0 0 4.088 5.238c5.238-5.749 14.18-9.326 23.761-9.326 11.369 0 18.779 4.599 18.779 11.625 0 6.515-4.599 9.325-19.801 12.008C8.942 22.483 2.172 27.338 2.172 37.174c0 10.603 10.092 17.502 25.932 17.502 9.581 0 17.63-2.683 24.4-8.048l-3.832-5.238c-5.749 4.471-12.519 6.771-20.312 6.771-12.264 0-19.034-3.96-19.034-10.987 0-6.131 4.215-8.686 18.395-11.114 19.035-3.193 26.061-8.303 26.061-18.651 0-10.858-10.348-18.14-26.061-18.14C16.607-10.731 6.515-6.643 0 0" style="fill:#000;fill-opacity:1;fill-rule:nonzero;stroke:none" transform="matrix(1.33333 0 0 -1.33333 698.14 137.55)"/><path d="M0 0h7.92l-40.623-93.511h-8.048l13.413 30.787L-53.398 0h7.92l14.308-35.003 7.92-19.289 8.176 19.289z" style="fill:#000;fill-opacity:1;fill-rule:nonzero;stroke:none" transform="matrix(1.33333 0 0 -1.33333 851.434 66.183)"/><path d="M0 0v-36.025h-7.282V-.383c0 13.924-7.281 21.589-20.184 21.589-6.77 0-12.263-2.172-16.479-6.387-4.216-4.344-6.387-9.709-6.387-16.224v-34.62h-7.282v63.107h6.643l.128-11.369c4.982 7.665 13.924 12.264 24.144 12.264C-9.964 27.977 0 17.501 0 0" style="fill:#000;fill-opacity:1;fill-rule:nonzero;stroke:none" transform="matrix(1.33333 0 0 -1.33333 958.227 102.293)"/><path d="M0 0c-6.26 6.132-9.326 14.052-9.326 23.633 0 9.709 3.066 17.629 9.326 23.761 6.132 6.004 13.924 9.07 23.505 9.07 8.687 0 16.224-3.193 22.74-9.453l-4.599-4.855c-4.727 4.983-10.731 7.41-18.268 7.41-7.282 0-13.286-2.299-18.14-7.026s-7.282-10.987-7.282-18.907c0-7.792 2.427-14.052 7.409-18.779C10.22.128 16.224-2.299 23.505-2.299q11.306 0 18.779 7.664l4.599-5.11c-6.387-6.259-14.18-9.453-23.378-9.453C13.924-9.198 6.132-6.132 0 0" style="fill:#000;fill-opacity:1;fill-rule:nonzero;stroke:none" transform="matrix(1.33333 0 0 -1.33333 991.097 139.765)"/><path d="m0 0-2.158-2.158c-6.055-6.055-15.872-6.055-21.927 0l-29.359 29.359L-79.755.89c-1.371-1.371-3.715-.4-3.715 1.539v76.707c0 1.202.974 2.176 2.176 2.176h76.707c1.939 0 2.911-2.344 1.539-3.715l-26.31-26.311L0 21.927C6.055 15.872 6.055 6.055 0 0m39.293 73.118v4.144c0 23.903-19.376 43.279-43.279 43.279H-107.02c-6.187 0-11.202-5.015-11.202-11.202V-34.726c0-6.187 5.015-11.202 11.202-11.202H-3.986c23.903 0 43.279 19.376 43.279 43.279v4.144c0 14.891-7.521 28.024-18.971 35.812 11.45 7.787 18.971 20.92 18.971 35.811" style="fill:#c8db45;fill-opacity:1;fill-rule:nonzero;stroke:none" transform="matrix(1.33333 0 0 -1.33333 157.63 160.721)"/></svg>